<svg xmlns="http://www.w3.org/2000/svg" xmlns:xlink="http://www.w3.org/1999/xlink" width="500" zoomAndPan="magnify" viewBox="0 0 375 374.999991" height="500" preserveAspectRatio="xMidYMid meet" version="1.0"><defs><g/><clipPath id="945aab941f"><path d="M 195 136 L 253.035156 136 L 253.035156 195.351562 L 195 195.351562 Z M 195 136 " clip-rule="nonzero"/></clipPath><clipPath id="4ff191407e"><path d="M 121.855469 136 L 205 136 L 205 195.351562 L 121.855469 195.351562 Z M 121.855469 136 " clip-rule="nonzero"/></clipPath><clipPath id="44a21f84fd"><path d="M 192 104.601562 L 215 104.601562 L 215 127 L 192 127 Z M 192 104.601562 " clip-rule="nonzero"/></clipPath><clipPath id="d1eb67aa6d"><path d="M 160 104.601562 L 183 104.601562 L 183 127 L 160 127 Z M 160 104.601562 " clip-rule="nonzero"/></clipPath></defs><g fill="#28a648" fill-opacity="1"><g transform="translate(55.369623, 242.607978)"><g><path d="M 9.445312 0 L 15.40625 0 L 15.40625 -20.652344 L 23.726562 -20.652344 L 23.726562 -26.238281 L 1.125 -26.238281 L 1.125 -20.652344 L 9.445312 -20.652344 Z M 9.445312 0 "/></g></g></g><g fill="#28a648" fill-opacity="1"><g transform="translate(87.713623, 242.607978)"><g><path d="M 15.59375 0.523438 C 23.804688 0.523438 29.613281 -5.097656 29.613281 -13.121094 C 29.613281 -21.140625 23.804688 -26.765625 15.59375 -26.765625 C 7.382812 -26.765625 1.613281 -21.140625 1.613281 -13.121094 C 1.613281 -5.097656 7.382812 0.523438 15.59375 0.523438 Z M 7.683594 -13.121094 C 7.683594 -17.84375 10.945312 -21.105469 15.59375 -21.105469 C 20.28125 -21.105469 23.503906 -17.84375 23.503906 -13.121094 C 23.503906 -8.398438 20.28125 -5.136719 15.59375 -5.136719 C 10.945312 -5.136719 7.683594 -8.398438 7.683594 -13.121094 Z M 7.683594 -13.121094 "/></g></g></g><g fill="#28a648" fill-opacity="1"><g transform="translate(126.42864, 242.607978)"><g><path d="M 15.367188 0.523438 C 24.027344 0.523438 29.613281 -5.886719 29.011719 -14.882812 L 14.207031 -14.882812 L 14.207031 -10.269531 L 22.714844 -10.269531 C 21.964844 -7.085938 19.265625 -4.949219 15.445312 -4.949219 C 10.644531 -4.949219 7.570312 -8.398438 7.570312 -13.121094 C 7.570312 -17.917969 10.757812 -21.292969 15.367188 -21.292969 C 18.292969 -21.292969 20.730469 -19.941406 22.003906 -17.65625 L 28.414062 -17.65625 C 26.839844 -23.164062 21.628906 -26.765625 15.257812 -26.765625 C 7.273438 -26.765625 1.613281 -21.105469 1.613281 -13.121094 C 1.613281 -5.097656 7.308594 0.523438 15.367188 0.523438 Z M 15.367188 0.523438 "/></g></g></g><g fill="#28a648" fill-opacity="1"><g transform="translate(164.506553, 242.607978)"><g><path d="M 3.148438 0 L 20.804688 0 L 20.804688 -5.058594 L 9.070312 -5.058594 L 9.070312 -10.796875 L 19.378906 -10.796875 L 19.378906 -15.78125 L 9.070312 -15.78125 L 9.070312 -21.214844 L 20.390625 -21.214844 L 20.390625 -26.238281 L 3.148438 -26.238281 Z M 3.148438 0 "/></g></g></g><g fill="#28a648" fill-opacity="1"><g transform="translate(194.714399, 242.607978)"><g><path d="M 9.445312 0 L 15.40625 0 L 15.40625 -20.652344 L 23.726562 -20.652344 L 23.726562 -26.238281 L 1.125 -26.238281 L 1.125 -20.652344 L 9.445312 -20.652344 Z M 9.445312 0 "/></g></g></g><g fill="#28a648" fill-opacity="1"><g transform="translate(227.058399, 242.607978)"><g><path d="M 19.378906 0 L 25.339844 0 L 25.339844 -26.238281 L 19.378906 -26.238281 L 19.378906 -16.15625 L 9.109375 -16.15625 L 9.109375 -26.238281 L 3.148438 -26.238281 L 3.148438 0 L 9.109375 0 L 9.109375 -10.570312 L 19.378906 -10.570312 Z M 19.378906 0 "/></g></g></g><g fill="#28a648" fill-opacity="1"><g transform="translate(263.037625, 242.607978)"><g><path d="M 3.148438 0 L 20.804688 0 L 20.804688 -5.058594 L 9.070312 -5.058594 L 9.070312 -10.796875 L 19.378906 -10.796875 L 19.378906 -15.78125 L 9.070312 -15.78125 L 9.070312 -21.214844 L 20.390625 -21.214844 L 20.390625 -26.238281 L 3.148438 -26.238281 Z M 3.148438 0 "/></g></g></g><g fill="#28a648" fill-opacity="1"><g transform="translate(293.245471, 242.607978)"><g><path d="M 3.148438 0 L 9.109375 0 L 9.109375 -8.171875 L 13.042969 -8.171875 L 17.730469 0 L 24.628906 0 L 19.191406 -9.109375 C 22.339844 -10.496094 24.179688 -13.34375 24.179688 -17.207031 C 24.179688 -22.789062 20.355469 -26.238281 14.355469 -26.238281 L 3.148438 -26.238281 Z M 9.035156 -13.195312 L 9.035156 -21.140625 L 13.570312 -21.140625 C 16.492188 -21.140625 18.144531 -19.71875 18.144531 -17.167969 C 18.144531 -14.621094 16.492188 -13.195312 13.570312 -13.195312 Z M 9.035156 -13.195312 "/></g></g></g><g clip-path="url(#945aab941f)"><path fill="#ffbd59" d="M 253.035156 185.464844 L 253.035156 195.304688 L 226.582031 195.304688 L 226.582031 169.359375 C 226.582031 157.019531 216.839844 146.847656 204.664062 146.128906 C 204.523438 146.128906 204.382812 146.113281 204.242188 146.113281 C 201.816406 142.710938 198.847656 139.679688 195.503906 137.179688 C 198.003906 136.570312 200.617188 136.242188 203.304688 136.242188 L 204.460938 136.273438 C 222.175781 136.882812 236.433594 151.519531 236.433594 169.359375 L 236.433594 185.46875 L 253.035156 185.46875 Z M 253.035156 185.464844 " fill-opacity="1" fill-rule="evenodd"/></g><g clip-path="url(#4ff191407e)"><path fill="#3ac25c" d="M 187.402344 152.394531 C 191.949219 156.644531 194.796875 162.6875 194.796875 169.359375 L 194.796875 178.230469 C 194.796875 182.261719 191.511719 185.539062 187.480469 185.539062 C 183.460938 185.539062 180.164062 182.257812 180.164062 178.230469 L 180.164062 166.734375 C 180.523438 163.578125 181.523438 160.59375 183.027344 157.9375 C 182.164062 157.078125 181.195312 156.300781 180.164062 155.640625 C 178.398438 154.53125 176.414062 153.734375 174.304688 153.359375 C 172.144531 157.25 170.753906 161.609375 170.316406 166.230469 L 170.316406 178.226562 C 170.316406 185.007812 174.273438 190.894531 180.007812 193.675781 C 181.792969 194.535156 183.746094 195.113281 185.8125 195.300781 L 189.15625 195.300781 C 191.15625 195.113281 193.066406 194.566406 194.800781 193.753906 C 200.617188 191.003906 204.667969 185.066406 204.667969 178.226562 L 204.667969 169.351562 C 204.667969 160.855469 201.429688 153.089844 196.128906 147.214844 C 195.707031 146.746094 195.253906 146.28125 194.800781 145.828125 C 192.613281 143.671875 190.125 141.8125 187.40625 140.3125 C 185.1875 139.09375 182.8125 138.125 180.308594 137.421875 C 177.511719 136.65625 174.570312 136.234375 171.523438 136.234375 C 171.195312 136.234375 170.851562 136.25 170.507812 136.25 C 152.730469 136.796875 138.394531 151.464844 138.394531 169.351562 L 138.394531 185.460938 L 121.785156 185.460938 L 121.785156 195.300781 L 148.238281 195.300781 L 148.238281 169.359375 C 148.238281 156.96875 158.054688 146.769531 170.3125 146.128906 C 170.703125 146.113281 171.109375 146.097656 171.519531 146.097656 C 174.019531 146.097656 176.425781 146.488281 178.695312 147.222656 C 179.179688 147.398438 179.679688 147.566406 180.164062 147.769531 C 182.867188 148.847656 185.308594 150.441406 187.402344 152.394531 Z M 187.402344 152.394531 " fill-opacity="1" fill-rule="evenodd"/></g><g clip-path="url(#44a21f84fd)"><path fill="#ffbd59" d="M 203.300781 104.65625 C 209.273438 104.65625 214.117188 109.484375 214.117188 115.46875 C 214.117188 121.433594 209.273438 126.277344 203.300781 126.277344 C 197.328125 126.277344 192.480469 121.4375 192.480469 115.46875 C 192.484375 109.484375 197.3125 104.65625 203.300781 104.65625 Z M 203.300781 104.65625 " fill-opacity="1" fill-rule="evenodd"/></g><g clip-path="url(#d1eb67aa6d)"><path fill="#3ac25c" d="M 171.519531 104.65625 C 177.488281 104.65625 182.339844 109.484375 182.339844 115.46875 C 182.339844 121.433594 177.492188 126.277344 171.519531 126.277344 C 165.542969 126.277344 160.699219 121.4375 160.699219 115.46875 C 160.699219 109.484375 165.546875 104.65625 171.519531 104.65625 Z M 171.519531 104.65625 " fill-opacity="1" fill-rule="evenodd"/></g></svg>